<svg xmlns="http://www.w3.org/2000/svg" viewBox="0 0 218.05 205.78">
  <defs>
    <style>
      .a {
        fill: #fff;
      }
    </style>
  </defs>
  <title>cart</title>
  <g>
    <path d="M204.22,30.53H56a23.26,23.26,0,0,1-3.74-.17,5.57,5.57,0,0,1,.55-11c.66-.06,1.33,0,2,0q78.13,0,156.25,0a10.65,10.65,0,0,1,3.2.31c3.3,1,4.59,4.08,3.35,7.93Q212,44.86,206.41,62.19q-6.27,19.36-12.54,38.73c-3.15,9.68-10.05,14.74-20.17,15.38-21.11,1.34-42.22,2.87-63.33,4.31q-13.09.89-26.19,1.71c-3.2.2-6.32.6-8.78,3a10.2,10.2,0,0,0,4.67,17.44,22.42,22.42,0,0,0,4.7.44q62.51,0,125,0c.92,0,1.84,0,2.75,0a5.29,5.29,0,0,1,5.35,5.41,5.68,5.68,0,0,1-5.22,5.69,19,19,0,0,1-2,.05q-63.5,0-127,0c-9.36,0-16.53-3.77-20.72-12.18-6.89-13.84,2.58-29.84,18.16-30.92q41.13-2.85,82.28-5.59c3.66-.25,7.31-.55,11-.83a8.84,8.84,0,0,0,8.34-6.44Q193.47,65,204.14,31.58A6.37,6.37,0,0,0,204.22,30.53Z"/>
    <path d="M14.33,0c2.58,0,5.17,0,7.75,0,4.4,0,5.83,1.06,7.42,5.25L56.8,77.42q4.34,11.44,8.64,22.89c1.45,3.85.35,6.78-2.94,8s-6.17-.24-7.62-4q-8.3-21.69-16.5-43.41-9-23.76-18-47.54c-.58-1.55-1.31-2.18-3-2.11-3.66.16-7.33.08-11,0S0,8.83,0,5.59,2.56,0,6.34,0C9,0,11.67,0,14.33,0Z"/>
    <path d="M104.63,184.32a21.92,21.92,0,0,1-43.83-.84c.31-12.38,10.32-21.62,23-21.21C95.05,162.62,104.92,173.06,104.63,184.32Zm-32.73-.4A10.53,10.53,0,0,0,82.31,194.5,10.49,10.49,0,1,0,71.9,183.92Z"/>
    <path d="M181.75,205.77a21.76,21.76,0,1,1,22.06-21.83A21.86,21.86,0,0,1,181.75,205.77Zm-10.4-21.69A10.64,10.64,0,1,0,182,173.54,10.5,10.5,0,0,0,171.35,184.08Z"/>
    <path class="a" d="M71.9,183.92A10.68,10.68,0,1,1,82.31,194.5,10.53,10.53,0,0,1,71.9,183.92Z"/>
    <path class="a" d="M171.35,184.08a10.64,10.64,0,0,1,21.27-.16,10.64,10.64,0,0,1-21.27.16Z"/>
  </g>
</svg>
